<mxfile host="app.diagrams.net" modified="2024-05-02T09:02:47.447Z" agent="Mozilla/5.0 (Windows NT 10.0; Win64; x64) AppleWebKit/537.36 (KHTML, like Gecko) Chrome/124.0.0.0 Safari/537.36" version="23.1.2" etag="LaDCnSsk2DpSgby0hKH2" type="github">
  <diagram name="Page-1" id="sH_05b8W89DrdHmUr_3j">
    <mxGraphModel>
      <root>
        <mxCell id="0" />
        <mxCell id="1" parent="0" />
      </root>
    </mxGraphModel>
  </diagram>
</mxfile>
